<svg
  width="28"
  height="31"
  viewBox="0 0 28 31"
  fill="none"
  xmlns="http://www.w3.org/2000/svg"
>
  <path
    d="M27.0437 15.8938C26.5183 15.3684 25.6691 15.3684 25.1437 15.8938L15.3437 25.6938V2.06254C15.3437 1.32076 14.7417 0.71875 13.9999 0.71875C13.2581 0.71875 12.6561 1.32076 12.6561 2.06254V25.6938L2.85616 15.8938C2.33072 15.3684 1.48153 15.3684 0.956089 15.8938C0.430653 16.4192 0.430653 17.2684 0.956089 17.7939L13.0499 29.8863C13.1735 30.0112 13.3226 30.1093 13.4879 30.1779C13.6505 30.2464 13.8252 30.2813 13.9999 30.2813C14.1746 30.2813 14.3493 30.2464 14.5132 30.1779C14.6785 30.1093 14.8263 30.0112 14.9512 29.8863L27.045 17.7939C27.5691 17.2684 27.5691 16.4192 27.0437 15.8938Z"
    fill="#E6E6E6"
  />
</svg>
