<svg width="15" height="15" viewBox="0 0 15 15" fill="none" xmlns="http://www.w3.org/2000/svg">
    <path d="M3.64453 5.01846C3.64453 5.33553 3.70698 5.64949 3.82832 5.94243C3.94966 6.23536 4.12751 6.50153 4.35171 6.72573C4.57591 6.94994 4.84208 7.12778 5.13501 7.24912C5.42795 7.37046 5.74191 7.43291 6.05898 7.43291C6.37605 7.43291 6.69002 7.37046 6.98296 7.24912C7.27589 7.12778 7.54206 6.94994 7.76626 6.72573C7.99046 6.50153 8.16831 6.23536 8.28965 5.94243C8.41099 5.64949 8.47344 5.33553 8.47344 5.01846C8.47344 4.3781 8.21906 3.76398 7.76626 3.31118C7.31346 2.85838 6.69934 2.604 6.05898 2.604C5.41863 2.604 4.80451 2.85838 4.35171 3.31118C3.89891 3.76398 3.64453 4.3781 3.64453 5.01846Z" fill="#00C499"/>
    <path d="M7.21563 7.56952H5.31797C3.1209 7.56952 1.34082 9.3496 1.34082 11.5467C1.34082 12.2098 1.87949 12.7484 2.54258 12.7484H9.76406C10.285 12.7484 10.7074 12.326 10.7074 11.8051V11.0613C10.7074 9.13359 9.14336 7.56952 7.21563 7.56952ZM8.78242 4.99921C8.78242 5.63769 8.55 6.22148 8.16445 6.67128C8.11934 6.72324 8.12207 6.80116 8.16992 6.85175C8.50352 7.19765 8.97246 7.4123 9.49062 7.4123C10.5105 7.4123 11.3363 6.58241 11.3295 5.56113C11.3227 4.56308 10.5105 3.74687 9.5125 3.73593C9.23086 3.7332 8.96426 3.79199 8.725 3.90273C8.64023 3.94238 8.59785 4.03945 8.6293 4.12695C8.7291 4.39765 8.78242 4.6916 8.78242 4.99921Z" fill="#00C499"/>
    <path d="M9.82156 7.71191H9.29109C9.18308 7.71191 9.14343 7.8541 9.2364 7.91016C10.2932 8.5377 11.0014 9.69023 11.0014 11.0096V11.7766C11.0014 11.983 10.9372 12.1744 10.8264 12.333C10.7772 12.4027 10.8264 12.4998 10.9126 12.4998H12.1759C12.6571 12.4998 13.0481 12.1088 13.0481 11.6275V10.9412C13.0481 9.15703 11.603 7.71191 9.82156 7.71191Z" fill="#00C499"/>
    </svg>
    