<svg width="39" height="32" viewBox="0 0 39 32" fill="none" xmlns="http://www.w3.org/2000/svg">
    <g clip-path="url(#clip0_142_578)">
        <path fill-rule="evenodd" clip-rule="evenodd"
            d="M17.1605 19.8593V4.85068C17.1605 2.48238 15.2407 0.5625 12.8724 0.5625H4.29599C1.9277 0.5625 0.0078125 2.48238 0.0078125 4.85068V13.4271C0.0078125 15.7954 1.9277 17.7152 4.29599 17.7152H10.7283V19.8593C10.768 21.9361 9.31366 23.7429 7.27628 24.1475C6.80095 24.2543 6.45745 24.6684 6.44009 25.1552V29.4435C6.42415 29.7761 6.55785 30.0987 6.80459 30.3225C7.03265 30.5257 7.33789 30.6197 7.64078 30.5798C13.0883 29.9659 17.1951 25.3412 17.1605 19.8593ZM25.7374 0.5625H34.3138C36.682 0.5625 38.6019 2.48238 38.6019 4.85068V19.8593C38.6254 25.333 34.5215 29.9454 29.0821 30.5583C28.7793 30.5983 28.4741 30.5043 28.246 30.301C28.0164 30.092 27.8842 29.7968 27.8815 29.4863V25.1981C27.8793 24.6951 28.227 24.2582 28.7177 24.1475C30.7551 23.7429 32.2095 21.9361 32.1696 19.8593V17.7152H25.7374C23.3691 17.7152 21.4492 15.7954 21.4492 13.4271V4.85068C21.4492 2.48238 23.3691 0.5625 25.7374 0.5625Z"
            fill="#641DAC" />
    </g>
    <defs>
        <clipPath id="clip0_142_578">
            <rect width="38.6094" height="30.875" fill="white" transform="translate(0 0.5625)" />
        </clipPath>
    </defs>
</svg>
    