<svg width="42" height="42" viewBox="0 0 42 42" fill="none" xmlns="http://www.w3.org/2000/svg">
    <rect x="0.5" y="0.5" width="41" height="41" rx="5.5" stroke="white" stroke-opacity="0.5" />
    <g clip-path="url(#clip0_82_6464)">
        <path
            d="M26.7143 10.7143C27.9267 10.7143 29.0895 11.1959 29.9468 12.0532C30.8041 12.9105 31.2857 14.0733 31.2857 15.2857V26.7143C31.2857 27.9267 30.8041 29.0895 29.9468 29.9468C29.0895 30.8041 27.9267 31.2857 26.7143 31.2857H15.2857C14.0733 31.2857 12.9105 30.8041 12.0532 29.9468C11.1959 29.0895 10.7143 27.9267 10.7143 26.7143V15.2857C10.7143 14.0733 11.1959 12.9105 12.0532 12.0532C12.9105 11.1959 14.0733 10.7143 15.2857 10.7143H26.7143ZM26.7143 9H15.2857C13.6191 9.00151 12.0212 9.66424 10.8427 10.8427C9.66424 12.0212 9.00151 13.6191 9 15.2857L9 26.7143C9.00151 28.3809 9.66424 29.9788 10.8427 31.1573C12.0212 32.3358 13.6191 32.9985 15.2857 33H26.7143C28.3809 32.9985 29.9788 32.3358 31.1573 31.1573C32.3358 29.9788 32.9985 28.3809 33 26.7143V15.2857C32.9985 13.6191 32.3358 12.0212 31.1573 10.8427C29.9788 9.66424 28.3809 9.00151 26.7143 9ZM21 15.8571C22.0172 15.8571 23.0115 16.1588 23.8572 16.7239C24.703 17.289 25.3621 18.0922 25.7514 19.0319C26.1406 19.9716 26.2425 21.0057 26.044 22.0033C25.8456 23.0009 25.3558 23.9173 24.6365 24.6365C23.9173 25.3558 23.0009 25.8456 22.0033 26.044C21.0057 26.2425 19.9716 26.1406 19.0319 25.7514C18.0922 25.3621 17.289 24.703 16.7239 23.8572C16.1588 23.0115 15.8571 22.0172 15.8571 21C15.8571 19.636 16.399 18.3279 17.3635 17.3635C18.3279 16.399 19.636 15.8571 21 15.8571ZM21 14.1429C19.6438 14.1429 18.318 14.545 17.1904 15.2985C16.0627 16.052 15.1838 17.1229 14.6648 18.3759C14.1458 19.6289 14.01 21.0076 14.2746 22.3378C14.5392 23.6679 15.1923 24.8897 16.1513 25.8487C17.1103 26.8077 18.3321 27.4608 19.6622 27.7254C20.9924 27.99 22.3711 27.8542 23.6241 27.3352C24.8771 26.8162 25.948 25.9373 26.7015 24.8096C27.455 23.682 27.8571 22.3562 27.8571 21C27.8555 19.1819 27.1325 17.4387 25.8469 16.1531C24.5613 14.8675 22.8181 14.1445 21 14.1429ZM28.7143 13.8571C28.7143 14.0832 28.6473 14.3041 28.5217 14.4921C28.3961 14.68 28.2176 14.8265 28.0088 14.913C27.8 14.9995 27.5702 15.0221 27.3485 14.978C27.1268 14.9339 26.9231 14.8251 26.7633 14.6653C26.6035 14.5054 26.4946 14.3018 26.4505 14.0801C26.4064 13.8584 26.4291 13.6286 26.5156 13.4198C26.6021 13.211 26.7485 13.0325 26.9365 12.9069C27.1244 12.7813 27.3454 12.7143 27.5714 12.7143C27.8745 12.7143 28.1652 12.8347 28.3796 13.049C28.5939 13.2633 28.7143 13.554 28.7143 13.8571Z"
            fill="white" />
    </g>
    <defs>
        <clipPath id="clip0_82_6464">
            <rect width="24" height="24" fill="white" transform="translate(9 9)" />
        </clipPath>
    </defs>
</svg>
    