<svg width="126" height="150" viewBox="0 0 126 150" fill="none" xmlns="http://www.w3.org/2000/svg">
<g id="&#229;&#155;&#190;&#229;&#177;&#130;_1" clip-path="url(#clip0_35_3177)">
<path id="Vector" d="M0.537229 143.052C1.66863 143.735 2.9633 144.098 4.2837 144.102C6.33365 144.102 7.52121 143.095 7.52121 141.635C7.52121 140.174 6.74364 139.508 4.52404 138.799C1.69651 137.948 0.282752 136.743 0.282752 134.658C0.282752 132.574 2.27616 130.688 5.25919 130.688C6.49474 130.642 7.72272 130.9 8.83601 131.44L8.27051 133.014C7.33025 132.514 6.281 132.255 5.21678 132.262C3.03959 132.262 2.26202 133.482 2.26202 134.46C2.26202 135.779 3.18096 136.473 5.38643 137.182C8.07258 138.047 9.45807 139.182 9.45807 141.436C9.45807 143.69 7.86052 145.69 4.07163 145.69C2.64555 145.695 1.24263 145.328 0 144.626L0.537229 143.052Z" fill="#F6F8F9"/>
<path id="Vector_2" d="M22.7191 140.117C22.7423 140.873 22.6079 141.625 22.3244 142.326C22.041 143.027 21.6148 143.66 21.0731 144.186C20.5315 144.712 19.8863 145.119 19.1789 145.38C18.4715 145.641 17.7175 145.752 16.9651 145.704C16.2504 145.737 15.5365 145.623 14.8673 145.369C14.1982 145.115 13.5879 144.726 13.0741 144.227C12.5603 143.727 12.1538 143.128 11.8796 142.465C11.6054 141.802 11.4693 141.09 11.4797 140.373C11.4573 139.627 11.5891 138.885 11.8669 138.193C12.1447 137.5 12.5623 136.874 13.0936 136.351C13.6249 135.829 14.2582 135.423 14.9537 135.159C15.6493 134.894 16.3919 134.777 17.1348 134.814C17.8566 134.761 18.5816 134.859 19.2634 135.103C19.9453 135.347 20.5689 135.73 21.0945 136.229C21.6201 136.728 22.036 137.332 22.3158 138.001C22.5955 138.671 22.7329 139.392 22.7191 140.117ZM13.4873 140.288C13.4423 140.789 13.5015 141.295 13.6612 141.772C13.8209 142.25 14.0775 142.689 14.415 143.062C14.7524 143.435 15.1633 143.734 15.6217 143.94C16.0801 144.146 16.576 144.254 17.0782 144.258C17.8873 144.344 18.7035 144.181 19.4185 143.792C20.1335 143.402 20.7136 142.804 21.0821 142.077C21.4505 141.349 21.5899 140.526 21.4816 139.718C21.3734 138.909 21.0227 138.152 20.476 137.548C19.9293 136.943 19.2125 136.52 18.4204 136.333C17.6283 136.147 16.7983 136.206 16.0405 136.503C15.2827 136.8 14.6327 137.321 14.1768 137.997C13.7208 138.673 13.4804 139.472 13.4873 140.288Z" fill="#F6F8F9"/>
<path id="Vector_3" d="M33.492 145.037C32.4186 145.491 31.2636 145.718 30.099 145.704C29.3703 145.768 28.6364 145.677 27.945 145.437C27.2537 145.198 26.6206 144.814 26.0869 144.312C25.5533 143.811 25.1311 143.202 24.848 142.525C24.5649 141.849 24.4273 141.12 24.444 140.387C24.444 137.111 26.8473 134.8 30.4949 134.8C31.5321 134.784 32.5602 134.997 33.5062 135.424L33.0538 136.842C32.2679 136.438 31.3917 136.242 30.509 136.275C29.9984 136.27 29.492 136.366 29.0185 136.558C28.545 136.75 28.1138 137.033 27.7495 137.392C27.3852 137.751 27.0949 138.178 26.8953 138.649C26.6956 139.12 26.5904 139.627 26.5858 140.139C26.5812 140.651 26.6771 141.159 26.8682 141.633C27.0593 142.108 27.3418 142.541 27.6995 142.906C28.0573 143.272 28.4833 143.563 28.9532 143.763C29.4231 143.963 29.9277 144.069 30.4383 144.073C31.3608 144.08 32.2733 143.881 33.1103 143.492L33.492 145.037Z" fill="#F6F8F9"/>
<path id="Vector_4" d="M38.1716 132.035C38.1738 132.199 38.1423 132.361 38.0792 132.512C38.016 132.663 37.9224 132.8 37.8043 132.913C37.6862 133.026 37.5462 133.113 37.3929 133.17C37.2396 133.226 37.0763 133.25 36.9133 133.24C36.7545 133.244 36.5965 133.216 36.4489 133.156C36.3014 133.097 36.1673 133.009 36.055 132.896C35.9426 132.783 35.8542 132.649 35.7952 132.501C35.7362 132.353 35.7077 132.194 35.7116 132.035C35.7115 131.873 35.744 131.713 35.807 131.564C35.87 131.415 35.9623 131.28 36.0785 131.167C36.1946 131.055 36.3321 130.967 36.4828 130.909C36.6336 130.851 36.7944 130.824 36.9557 130.83C37.1158 130.824 37.2753 130.851 37.4245 130.909C37.5737 130.968 37.7095 131.056 37.8234 131.169C37.9373 131.282 38.0269 131.417 38.0868 131.566C38.1467 131.715 38.1755 131.875 38.1716 132.035ZM35.9661 145.448V135.055H37.9171V145.448H35.9661Z" fill="#F6F8F9"/>
<path id="Vector_5" d="M47.6014 145.449L47.4176 144.031C46.9941 144.559 46.4549 144.982 45.842 145.267C45.229 145.553 44.5587 145.692 43.8832 145.676C43.4624 145.719 43.0374 145.674 42.6345 145.545C42.2315 145.417 41.8594 145.206 41.5411 144.927C41.2228 144.647 40.9653 144.305 40.7845 143.922C40.6037 143.539 40.5035 143.122 40.4901 142.698C40.4901 140.202 42.7522 138.742 47.3186 138.785V138.6C47.3412 138.26 47.2877 137.92 47.162 137.603C47.0362 137.287 46.8415 137.003 46.5921 136.772C46.3427 136.541 46.0449 136.368 45.7205 136.268C45.396 136.167 45.0533 136.14 44.7173 136.19C43.6489 136.181 42.5999 136.476 41.6918 137.041L41.2394 135.75C42.3817 135.089 43.6814 134.751 45 134.772C48.5203 134.772 49.2413 137.211 49.2413 139.21V142.882C49.2342 143.731 49.2909 144.58 49.411 145.42L47.6014 145.449ZM47.2903 140.16C44.8587 140.16 42.4129 140.543 42.4129 142.471C42.4033 142.721 42.4476 142.97 42.5426 143.202C42.6377 143.433 42.7813 143.642 42.9637 143.812C43.1461 143.983 43.363 144.113 43.5997 144.192C43.8365 144.271 44.0874 144.298 44.3356 144.272C44.9324 144.29 45.521 144.128 46.0251 143.807C46.5292 143.486 46.9256 143.021 47.1631 142.471C47.228 142.279 47.2614 142.078 47.2621 141.876L47.2903 140.16Z" fill="#F6F8F9"/>
<path id="Vector_6" d="M52.493 130.064H54.444V145.449H52.493V130.064Z" fill="#F6F8F9"/>
<path id="Vector_7" d="M62.9265 141.407C64.2223 142.043 65.6409 142.386 67.083 142.414C68.4261 142.414 69.1188 141.989 69.1188 141.251C69.1188 140.514 68.4543 140.231 66.6871 139.734C64.2272 139.039 62.2055 137.778 62.2055 135.254C62.2055 132.73 64.5665 130.702 68.313 130.702C69.8251 130.656 71.3294 130.936 72.7239 131.525L71.7908 134.701C70.6709 134.212 69.4637 133.956 68.2423 133.949C67.0406 133.949 66.3478 134.332 66.3478 134.956C66.3478 135.58 67.2668 135.991 69.1754 136.586C72.0029 137.494 73.3035 138.855 73.3035 141.039C73.3035 143.478 71.395 145.704 66.7861 145.704C65.1709 145.707 63.5725 145.374 62.0924 144.725L62.9265 141.407Z" fill="#F6F8F9"/>
<path id="Vector_8" d="M79.4675 131.936C79.4633 132.201 79.4038 132.462 79.2931 132.702C79.1823 132.943 79.0226 133.157 78.8242 133.332C78.6258 133.507 78.3932 133.638 78.1412 133.718C77.8892 133.797 77.6235 133.823 77.361 133.793C77.1033 133.816 76.8436 133.784 76.5986 133.701C76.3536 133.617 76.1286 133.484 75.9378 133.309C75.7471 133.133 75.5948 132.92 75.4906 132.682C75.3864 132.445 75.3326 132.188 75.3326 131.929C75.3326 131.669 75.3864 131.413 75.4906 131.175C75.5948 130.937 75.7471 130.724 75.9378 130.549C76.1286 130.374 76.3536 130.24 76.5986 130.157C76.8436 130.073 77.1033 130.042 77.361 130.064C77.6247 130.034 77.8916 130.06 78.1445 130.141C78.3975 130.221 78.6308 130.354 78.8294 130.53C79.028 130.707 79.1874 130.923 79.2973 131.165C79.4072 131.407 79.4652 131.67 79.4675 131.936ZM75.3535 145.448V134.871H79.3968V145.448H75.3535Z" fill="#F6F8F9"/>
<path id="Vector_9" d="M93.1669 134.871C93.1669 135.396 93.0679 136.204 93.0679 138.104V143.775C93.147 144.665 93.0339 145.561 92.7363 146.403C92.4386 147.245 91.9634 148.012 91.3431 148.653C89.9858 149.671 88.3128 150.173 86.6212 150.071C85.1593 150.103 83.7092 149.803 82.3799 149.192L83.1575 146.143C84.195 146.696 85.3475 146.998 86.5222 147.022C86.8589 147.052 87.1979 147.008 87.5161 146.894C87.8342 146.779 88.124 146.597 88.3657 146.36C88.6073 146.124 88.7951 145.837 88.9161 145.521C89.0371 145.204 89.0886 144.865 89.067 144.527V144.059C88.718 144.466 88.2834 144.79 87.7945 145.008C87.3056 145.227 86.7745 145.333 86.2395 145.321C85.5767 145.331 84.9192 145.202 84.3093 144.942C83.6995 144.681 83.151 144.295 82.6993 143.809C82.2475 143.322 81.9026 142.746 81.6869 142.118C81.4711 141.489 81.3894 140.822 81.4468 140.16C81.4026 139.451 81.503 138.741 81.7418 138.073C81.9807 137.404 82.3531 136.792 82.8362 136.273C83.3192 135.754 83.9028 135.339 84.5512 135.054C85.1996 134.769 85.8992 134.62 86.607 134.616C87.1842 134.572 87.7627 134.68 88.2857 134.929C88.8087 135.177 89.2582 135.558 89.5901 136.034L89.689 134.871H93.1669ZM89.067 139.394C89.0836 139.248 89.0836 139.101 89.067 138.955C89.0279 138.56 88.8416 138.194 88.5454 137.932C88.2492 137.669 87.8649 137.528 87.4694 137.537C86.5505 137.537 85.575 138.302 85.575 140.075C85.5418 140.353 85.5654 140.636 85.6444 140.905C85.7235 141.175 85.8563 141.425 86.0348 141.641C86.2133 141.857 86.4338 142.035 86.6829 142.163C86.9319 142.291 87.2044 142.367 87.4836 142.386C87.8491 142.394 88.2059 142.274 88.4925 142.046C88.779 141.818 88.9772 141.497 89.0529 141.138C89.0765 140.884 89.0812 140.628 89.067 140.373V139.394Z" fill="#F6F8F9"/>
<path id="Vector_10" d="M95.641 138.543C95.641 137.04 95.641 135.821 95.5562 134.871H99.0481L99.2319 136.289H99.3168C99.6954 135.76 100.198 135.332 100.779 135.043C101.361 134.754 102.004 134.612 102.653 134.63C105.184 134.63 106.753 136.261 106.753 139.366V145.463H102.696V139.947C102.696 138.529 102.201 137.834 101.197 137.834C100.88 137.823 100.568 137.918 100.311 138.106C100.055 138.294 99.8688 138.563 99.7833 138.869C99.7119 139.099 99.6832 139.339 99.6985 139.578V145.449H95.641V138.543Z" fill="#F6F8F9"/>
<path id="Vector_11" d="M115.745 145.449L115.533 144.541H115.448C115.047 144.945 114.565 145.259 114.033 145.459C113.501 145.66 112.933 145.743 112.366 145.704C111.903 145.741 111.437 145.682 110.997 145.533C110.557 145.383 110.152 145.145 109.807 144.833C109.462 144.521 109.183 144.142 108.989 143.719C108.794 143.296 108.688 142.838 108.676 142.372C108.676 139.536 111.207 138.232 115.193 138.232C115.193 137.849 114.939 137.367 113.341 137.367C112.229 137.395 111.139 137.687 110.16 138.217L109.453 135.679C110.888 134.981 112.469 134.64 114.062 134.687C117.682 134.687 119.223 136.516 119.223 139.352V142.896C119.199 143.774 119.256 144.652 119.392 145.52L115.745 145.449ZM115.321 140.685C113.539 140.685 112.677 141.124 112.677 141.989C112.677 142.585 113.087 142.939 113.836 142.939C114.156 142.922 114.463 142.806 114.716 142.608C114.969 142.411 115.155 142.14 115.25 141.833C115.272 141.64 115.272 141.445 115.25 141.252L115.321 140.685Z" fill="#F6F8F9"/>
<path id="Vector_12" d="M121.796 130.064H125.825V145.449H121.796V130.064Z" fill="#F6F8F9"/>
<path id="Vector_13" d="M89.6183 25.7491C96.2315 25.7485 102.594 23.2122 107.403 18.6596C107.177 17.6448 106.81 16.6665 106.315 15.7529C104.153 18.0035 101.559 19.7919 98.6896 21.0103C95.8201 22.2287 92.7344 22.852 89.6183 22.8424C83.5763 22.8299 77.7769 20.4568 73.4508 16.2265C69.1246 11.9962 66.6123 6.2418 66.4468 0.184327C65.4572 0.184327 64.4958 0.0425371 63.6193 0C63.7194 6.85426 66.5009 13.3946 71.3643 18.2112C76.2277 23.0278 82.7834 25.735 89.6183 25.7491Z" fill="#8DC9F8"/>
<path id="Vector_14" d="M89.6183 17.9364C92.1902 17.9292 94.7313 17.3743 97.0734 16.3086C99.4155 15.2429 101.505 13.6906 103.205 11.7543C102.476 11.1433 101.706 10.5842 100.9 10.0812C99.4638 11.656 97.7166 12.9142 95.7696 13.7759C93.8226 14.6375 91.7182 15.0838 89.5901 15.0864C85.7366 15.0759 82.0265 13.6192 79.1903 11.0029C76.354 8.38664 74.5969 4.80031 74.2649 0.949878L72.1018 0.723014L71.395 0.637939C71.6583 5.30889 73.6922 9.70216 77.0801 12.9181C80.468 16.1341 84.9536 17.9293 89.6183 17.9364Z" fill="#8DC9F8"/>
<path id="Vector_15" d="M89.6183 10.1096C92.0784 10.1162 94.46 9.24129 96.3337 7.64247L94.722 6.91934L93.3083 6.32382C92.1893 6.95049 90.9282 7.27766 89.6466 7.27381C88.1063 7.2601 86.6063 6.77853 85.3444 5.8926C84.0825 5.00666 83.1179 3.75797 82.5778 2.31115C81.7154 2.09847 80.6834 1.88578 79.4534 1.6731C79.9217 4.03739 81.1884 6.16747 83.04 7.70426C84.8917 9.24105 87.215 10.0906 89.6183 10.1096Z" fill="#8DC9F8"/>
<path id="Vector_16" d="M24.3732 73.0078C23.1677 73.6029 22.0651 74.388 21.1075 75.3332C26.7675 75.9835 31.9918 78.6973 35.7871 82.9585C39.5823 87.2198 41.6838 92.7313 41.6918 98.445C41.6959 101.088 41.2463 103.711 40.3629 106.201L42.1725 106.726L43.1056 106.967C44.2975 103.508 44.751 99.8362 44.4366 96.1902C44.1222 92.5442 43.0469 89.0052 41.2805 85.803C39.514 82.6008 37.096 79.8068 34.1833 77.6025C31.2706 75.3982 27.9282 73.8328 24.3732 73.0078Z" fill="#5E4FFF"/>
<path id="Vector_17" d="M18.492 80.1543C18.1668 80.1543 17.8275 80.1543 17.5165 80.1543C17.0106 81.0924 16.6167 82.0871 16.3431 83.1177C18.9586 82.7477 21.625 83.0588 24.086 84.021C26.547 84.9833 28.7197 86.5644 30.3953 88.6123C32.0709 90.6602 33.1929 93.1061 33.6535 95.7146C34.1142 98.3232 33.8979 101.007 33.0255 103.507C33.4779 103.72 33.9303 103.918 34.4392 104.103L35.6975 104.585C36.6754 101.823 36.9777 98.8654 36.5789 95.9617C36.1802 93.058 35.092 90.2929 33.4059 87.8987C31.7198 85.5046 29.4851 83.5516 26.8899 82.2039C24.2946 80.8563 21.4145 80.1533 18.492 80.1543Z" fill="#5E4FFF"/>
<path id="Vector_18" d="M18.492 87.9102C17.7699 87.9133 17.05 87.9893 16.3431 88.1371C16.6027 88.9156 16.9193 89.6739 17.2903 90.4057L17.5165 90.8169C17.8413 90.7948 18.1672 90.7948 18.492 90.8169C20.5105 90.8207 22.4451 91.6275 23.8711 93.0603C25.2971 94.4932 26.098 96.4349 26.098 98.4594C26.1125 98.7475 26.1125 99.0362 26.098 99.3243C26.8191 99.8631 27.5118 100.388 28.2611 100.87L28.6287 101.111C28.8618 100.246 28.9806 99.3549 28.9821 98.4594C28.9896 97.0744 28.7235 95.7015 28.1994 94.4201C27.6752 93.1387 26.9032 91.974 25.928 90.9933C24.9528 90.0126 23.7936 89.2353 22.5174 88.7061C21.2411 88.1769 19.873 87.9064 18.492 87.9102Z" fill="#5E4FFF"/>
<path id="Vector_19" d="M58.4591 41.5446C57.0803 41.2791 55.7202 40.9239 54.3874 40.4812C50.0483 47.9601 42.9904 53.4634 34.6937 55.8371C36.1571 56.5824 37.663 57.2405 39.2036 57.808L40.2498 58.1908C48.0136 54.8541 54.4288 48.9895 58.4591 41.5446Z" fill="#5E4FFF"/>
<path id="Vector_20" d="M58.8832 23.6649C59.378 23.6649 59.9011 23.5798 60.4383 23.5656C61.3007 23.5656 62.1207 23.5656 62.9407 23.4948C62.87 14.9561 59.8752 6.70119 54.4581 0.113525C52.8269 0.239832 51.2035 0.452816 49.5948 0.751582C55.5199 6.90313 58.8475 15.1119 58.8832 23.6649Z" fill="#5E4FFF"/>
<path id="Vector_21" d="M41.3525 2.83569L40.8294 2.99166C39.4395 3.46557 38.0797 4.02432 36.7578 4.66479C40.9438 7.11631 44.2085 10.8819 46.0478 15.3799C47.887 19.8779 48.1985 24.8582 46.9341 29.5515C45.6697 34.2448 42.8998 38.39 39.0521 41.3469C35.2044 44.3038 30.493 45.908 25.6456 45.9116C24.8964 45.9116 24.2319 45.9116 23.4543 45.7982C24.3811 47.2661 25.4261 48.6555 26.5787 49.9526C31.1845 49.7855 35.6641 48.3988 39.5625 45.9334C43.461 43.4679 46.6393 40.0115 48.7748 35.9154C48.3171 35.0373 48.0565 34.0694 48.0114 33.0796C48.0284 31.9107 48.2888 30.7583 48.7757 29.6962C49.2626 28.634 49.9653 27.6856 50.8389 26.9117C51.1191 26.6288 51.4166 26.3636 51.7295 26.1177C51.8002 25.3662 51.8426 24.6147 51.8426 23.849C51.8504 19.7684 50.9057 15.7426 49.0841 12.0938C47.2626 8.44492 44.6148 5.27433 41.3525 2.83569Z" fill="#5E4FFF"/>
<path id="Vector_22" d="M40.6174 23.7783C40.6159 20.4688 39.5243 17.2525 37.5122 14.6293C35.5001 12.0062 32.6803 10.1232 29.4911 9.27319C28.3785 10.198 27.3255 11.1925 26.3384 12.2508C26.1546 12.4351 25.985 12.6478 25.8153 12.8463C27.5158 12.8713 29.1868 13.295 30.6948 14.0835C32.2028 14.872 33.5059 16.0034 34.4999 17.3874C35.4939 18.7713 36.1513 20.3693 36.4194 22.0536C36.6875 23.7378 36.559 25.4617 36.0441 27.0872C35.5292 28.7128 34.6421 30.1949 33.4539 31.4152C32.2657 32.6354 30.8093 33.5599 29.2012 34.1147C27.593 34.6695 25.8778 34.8392 24.1925 34.6103C22.5073 34.3813 20.8988 33.7601 19.4958 32.7962C19.5174 34.4288 19.683 36.0563 19.9906 37.6596C22.2622 38.5927 24.7278 38.9508 27.1699 38.7022C29.6121 38.4537 31.9557 37.6061 33.9941 36.2344C36.0324 34.8626 37.7028 33.0088 38.8579 30.8365C40.013 28.6643 40.6172 26.2402 40.6174 23.7783Z" fill="#5E4FFF"/>
<path id="Vector_23" d="M68.3695 109.632C63.4021 107.107 59.1461 103.372 55.9918 98.7696C52.8375 94.1667 50.8859 88.8433 50.3158 83.2875C50.0047 83.1741 49.6937 83.0748 49.3827 82.9472C48.273 82.5365 47.1874 82.0631 46.131 81.5293C46.3679 87.0038 47.8043 92.3587 50.3381 97.2134C52.872 102.068 56.4411 106.303 60.7917 109.618H62.5448C64.2036 109.712 66.1452 109.717 68.3695 109.632Z" fill="#8DC9F8"/>
<path id="Vector_24" d="M55.4619 61.8632C58.4716 57.1716 62.6081 53.3135 67.4917 50.6428C72.3753 47.9721 77.8495 46.5745 83.4119 46.5782C84.8876 46.5812 86.3614 46.6855 87.8229 46.8901L87.2998 46.7058C84.3037 45.7833 81.2596 45.026 78.181 44.4371L73.7418 43.7991C64.2088 46.3873 56.0798 52.6446 51.1216 61.2109L52.1819 61.3953L55.4619 61.8632Z" fill="#8DC9F8"/>
<path id="Vector_25" d="M68.5392 63.5362C72.0993 60.2904 76.6195 58.3003 81.4116 57.869C86.2037 57.4377 91.005 58.5889 95.0845 61.1473C99.1639 63.7056 102.298 67.5309 104.009 72.0407C105.721 76.5506 105.916 81.4978 104.565 86.129C103.214 90.7603 100.391 94.8219 96.5255 97.6953C92.6602 100.569 87.9645 102.097 83.1535 102.046C78.3424 101.996 73.6796 100.37 69.875 97.4161C66.0704 94.4623 63.3325 90.3424 62.0783 85.6839C60.4242 85.5988 58.9963 85.4712 57.837 85.2869C59.0795 91.1698 62.2966 96.4473 66.9512 100.238C71.6057 104.029 77.416 106.104 83.4119 106.116C85.9305 106.117 88.4358 105.749 90.8483 105.024C91.3855 104.797 91.9228 104.556 92.46 104.301C100.08 100.499 105.952 93.9049 108.86 85.8824C109.32 83.9262 109.553 81.923 109.552 79.913C109.56 74.5554 107.928 69.3245 104.877 64.9266C101.826 60.5287 97.5031 57.1758 92.4916 55.3206C87.4801 53.4653 82.0217 53.1971 76.8534 54.5522C71.6851 55.9073 67.0559 58.8205 63.591 62.8982L66.8426 63.2952L68.5392 63.5362Z" fill="#8DC9F8"/>
<path id="Vector_26" d="M80.3582 67.8752C80.6924 68.2929 81.0038 68.7283 81.2913 69.1796C81.9888 69.0344 82.6996 68.9631 83.4119 68.9669C85.3354 68.9638 87.2256 69.4706 88.8909 70.4359C90.5563 71.4012 91.9377 72.7908 92.8952 74.4639C93.8528 76.137 94.3525 78.0341 94.3437 79.9632C94.3349 81.8923 93.8179 83.7848 92.8451 85.4491C91.8723 87.1133 90.4783 88.4901 88.8042 89.4401C87.1301 90.3901 85.2354 90.8795 83.3121 90.8587C81.3887 90.838 79.5049 90.3078 77.8516 89.3218C76.1983 88.3359 74.8342 86.9293 73.8973 85.2445C72.5017 85.5422 71.0822 85.713 69.656 85.7549C70.8098 88.4855 72.7432 90.8128 75.213 92.4437C77.6827 94.0746 80.5783 94.9362 83.5353 94.9202C86.4922 94.9041 89.3784 94.0111 91.8304 92.3534C94.2823 90.6958 96.1905 88.3477 97.3147 85.6047C98.4389 82.8617 98.7289 79.8465 98.1481 76.9386C97.5673 74.0307 96.1417 71.3601 94.0508 69.263C91.9599 67.166 89.2971 65.7362 86.3977 65.1536C83.4983 64.5711 80.4919 64.8619 77.7569 65.9894C78.7474 66.426 79.6341 67.0688 80.3582 67.8752Z" fill="#8DC9F8"/>
</g>
<defs>
<clipPath id="clip0_35_3177">
<rect width="125.839" height="150" fill="white"/>
</clipPath>
</defs>
</svg>
