<svg width="126" height="136" viewBox="0 -10 126 126" fill="none" xmlns="http://www.w3.org/2000/svg">
    <g id="&#229;&#155;&#190;&#229;&#177;&#130;_1" clip-path="url(#clip0_35_3177)">

    <path id="Vector_13" d="M89.6183 25.7491C96.2315 25.7485 102.594 23.2122 107.403 18.6596C107.177 17.6448 106.81 16.6665 106.315 15.7529C104.153 18.0035 101.559 19.7919 98.6896 21.0103C95.8201 22.2287 92.7344 22.852 89.6183 22.8424C83.5763 22.8299 77.7769 20.4568 73.4508 16.2265C69.1246 11.9962 66.6123 6.2418 66.4468 0.184327C65.4572 0.184327 64.4958 0.0425371 63.6193 0C63.7194 6.85426 66.5009 13.3946 71.3643 18.2112C76.2277 23.0278 82.7834 25.735 89.6183 25.7491Z" fill="#8DC9F8"/>
    <path id="Vector_14" d="M89.6183 17.9364C92.1902 17.9292 94.7313 17.3743 97.0734 16.3086C99.4155 15.2429 101.505 13.6906 103.205 11.7543C102.476 11.1433 101.706 10.5842 100.9 10.0812C99.4638 11.656 97.7166 12.9142 95.7696 13.7759C93.8226 14.6375 91.7182 15.0838 89.5901 15.0864C85.7366 15.0759 82.0265 13.6192 79.1903 11.0029C76.354 8.38664 74.5969 4.80031 74.2649 0.949878L72.1018 0.723014L71.395 0.637939C71.6583 5.30889 73.6922 9.70216 77.0801 12.9181C80.468 16.1341 84.9536 17.9293 89.6183 17.9364Z" fill="#8DC9F8"/>
    <path id="Vector_15" d="M89.6183 10.1096C92.0784 10.1162 94.46 9.24129 96.3337 7.64247L94.722 6.91934L93.3083 6.32382C92.1893 6.95049 90.9282 7.27766 89.6466 7.27381C88.1063 7.2601 86.6063 6.77853 85.3444 5.8926C84.0825 5.00666 83.1179 3.75797 82.5778 2.31115C81.7154 2.09847 80.6834 1.88578 79.4534 1.6731C79.9217 4.03739 81.1884 6.16747 83.04 7.70426C84.8917 9.24105 87.215 10.0906 89.6183 10.1096Z" fill="#8DC9F8"/>
    <path id="Vector_16" d="M24.3732 73.0078C23.1677 73.6029 22.0651 74.388 21.1075 75.3332C26.7675 75.9835 31.9918 78.6973 35.7871 82.9585C39.5823 87.2198 41.6838 92.7313 41.6918 98.445C41.6959 101.088 41.2463 103.711 40.3629 106.201L42.1725 106.726L43.1056 106.967C44.2975 103.508 44.751 99.8362 44.4366 96.1902C44.1222 92.5442 43.0469 89.0052 41.2805 85.803C39.514 82.6008 37.096 79.8068 34.1833 77.6025C31.2706 75.3982 27.9282 73.8328 24.3732 73.0078Z" fill="#5E4FFF"/>
    <path id="Vector_17" d="M18.492 80.1543C18.1668 80.1543 17.8275 80.1543 17.5165 80.1543C17.0106 81.0924 16.6167 82.0871 16.3431 83.1177C18.9586 82.7477 21.625 83.0588 24.086 84.021C26.547 84.9833 28.7197 86.5644 30.3953 88.6123C32.0709 90.6602 33.1929 93.1061 33.6535 95.7146C34.1142 98.3232 33.8979 101.007 33.0255 103.507C33.4779 103.72 33.9303 103.918 34.4392 104.103L35.6975 104.585C36.6754 101.823 36.9777 98.8654 36.5789 95.9617C36.1802 93.058 35.092 90.2929 33.4059 87.8987C31.7198 85.5046 29.4851 83.5516 26.8899 82.2039C24.2946 80.8563 21.4145 80.1533 18.492 80.1543Z" fill="#5E4FFF"/>
    <path id="Vector_18" d="M18.492 87.9102C17.7699 87.9133 17.05 87.9893 16.3431 88.1371C16.6027 88.9156 16.9193 89.6739 17.2903 90.4057L17.5165 90.8169C17.8413 90.7948 18.1672 90.7948 18.492 90.8169C20.5105 90.8207 22.4451 91.6275 23.8711 93.0603C25.2971 94.4932 26.098 96.4349 26.098 98.4594C26.1125 98.7475 26.1125 99.0362 26.098 99.3243C26.8191 99.8631 27.5118 100.388 28.2611 100.87L28.6287 101.111C28.8618 100.246 28.9806 99.3549 28.9821 98.4594C28.9896 97.0744 28.7235 95.7015 28.1994 94.4201C27.6752 93.1387 26.9032 91.974 25.928 90.9933C24.9528 90.0126 23.7936 89.2353 22.5174 88.7061C21.2411 88.1769 19.873 87.9064 18.492 87.9102Z" fill="#5E4FFF"/>
    <path id="Vector_19" d="M58.4591 41.5446C57.0803 41.2791 55.7202 40.9239 54.3874 40.4812C50.0483 47.9601 42.9904 53.4634 34.6937 55.8371C36.1571 56.5824 37.663 57.2405 39.2036 57.808L40.2498 58.1908C48.0136 54.8541 54.4288 48.9895 58.4591 41.5446Z" fill="#5E4FFF"/>
    <path id="Vector_20" d="M58.8832 23.6649C59.378 23.6649 59.9011 23.5798 60.4383 23.5656C61.3007 23.5656 62.1207 23.5656 62.9407 23.4948C62.87 14.9561 59.8752 6.70119 54.4581 0.113525C52.8269 0.239832 51.2035 0.452816 49.5948 0.751582C55.5199 6.90313 58.8475 15.1119 58.8832 23.6649Z" fill="#5E4FFF"/>
    <path id="Vector_21" d="M41.3525 2.83569L40.8294 2.99166C39.4395 3.46557 38.0797 4.02432 36.7578 4.66479C40.9438 7.11631 44.2085 10.8819 46.0478 15.3799C47.887 19.8779 48.1985 24.8582 46.9341 29.5515C45.6697 34.2448 42.8998 38.39 39.0521 41.3469C35.2044 44.3038 30.493 45.908 25.6456 45.9116C24.8964 45.9116 24.2319 45.9116 23.4543 45.7982C24.3811 47.2661 25.4261 48.6555 26.5787 49.9526C31.1845 49.7855 35.6641 48.3988 39.5625 45.9334C43.461 43.4679 46.6393 40.0115 48.7748 35.9154C48.3171 35.0373 48.0565 34.0694 48.0114 33.0796C48.0284 31.9107 48.2888 30.7583 48.7757 29.6962C49.2626 28.634 49.9653 27.6856 50.8389 26.9117C51.1191 26.6288 51.4166 26.3636 51.7295 26.1177C51.8002 25.3662 51.8426 24.6147 51.8426 23.849C51.8504 19.7684 50.9057 15.7426 49.0841 12.0938C47.2626 8.44492 44.6148 5.27433 41.3525 2.83569Z" fill="#5E4FFF"/>
    <path id="Vector_22" d="M40.6174 23.7783C40.6159 20.4688 39.5243 17.2525 37.5122 14.6293C35.5001 12.0062 32.6803 10.1232 29.4911 9.27319C28.3785 10.198 27.3255 11.1925 26.3384 12.2508C26.1546 12.4351 25.985 12.6478 25.8153 12.8463C27.5158 12.8713 29.1868 13.295 30.6948 14.0835C32.2028 14.872 33.5059 16.0034 34.4999 17.3874C35.4939 18.7713 36.1513 20.3693 36.4194 22.0536C36.6875 23.7378 36.559 25.4617 36.0441 27.0872C35.5292 28.7128 34.6421 30.1949 33.4539 31.4152C32.2657 32.6354 30.8093 33.5599 29.2012 34.1147C27.593 34.6695 25.8778 34.8392 24.1925 34.6103C22.5073 34.3813 20.8988 33.7601 19.4958 32.7962C19.5174 34.4288 19.683 36.0563 19.9906 37.6596C22.2622 38.5927 24.7278 38.9508 27.1699 38.7022C29.6121 38.4537 31.9557 37.6061 33.9941 36.2344C36.0324 34.8626 37.7028 33.0088 38.8579 30.8365C40.013 28.6643 40.6172 26.2402 40.6174 23.7783Z" fill="#5E4FFF"/>
    <path id="Vector_23" d="M68.3695 109.632C63.4021 107.107 59.1461 103.372 55.9918 98.7696C52.8375 94.1667 50.8859 88.8433 50.3158 83.2875C50.0047 83.1741 49.6937 83.0748 49.3827 82.9472C48.273 82.5365 47.1874 82.0631 46.131 81.5293C46.3679 87.0038 47.8043 92.3587 50.3381 97.2134C52.872 102.068 56.4411 106.303 60.7917 109.618H62.5448C64.2036 109.712 66.1452 109.717 68.3695 109.632Z" fill="#8DC9F8"/>
    <path id="Vector_24" d="M55.4619 61.8632C58.4716 57.1716 62.6081 53.3135 67.4917 50.6428C72.3753 47.9721 77.8495 46.5745 83.4119 46.5782C84.8876 46.5812 86.3614 46.6855 87.8229 46.8901L87.2998 46.7058C84.3037 45.7833 81.2596 45.026 78.181 44.4371L73.7418 43.7991C64.2088 46.3873 56.0798 52.6446 51.1216 61.2109L52.1819 61.3953L55.4619 61.8632Z" fill="#8DC9F8"/>
    <path id="Vector_25" d="M68.5392 63.5362C72.0993 60.2904 76.6195 58.3003 81.4116 57.869C86.2037 57.4377 91.005 58.5889 95.0845 61.1473C99.1639 63.7056 102.298 67.5309 104.009 72.0407C105.721 76.5506 105.916 81.4978 104.565 86.129C103.214 90.7603 100.391 94.8219 96.5255 97.6953C92.6602 100.569 87.9645 102.097 83.1535 102.046C78.3424 101.996 73.6796 100.37 69.875 97.4161C66.0704 94.4623 63.3325 90.3424 62.0783 85.6839C60.4242 85.5988 58.9963 85.4712 57.837 85.2869C59.0795 91.1698 62.2966 96.4473 66.9512 100.238C71.6057 104.029 77.416 106.104 83.4119 106.116C85.9305 106.117 88.4358 105.749 90.8483 105.024C91.3855 104.797 91.9228 104.556 92.46 104.301C100.08 100.499 105.952 93.9049 108.86 85.8824C109.32 83.9262 109.553 81.923 109.552 79.913C109.56 74.5554 107.928 69.3245 104.877 64.9266C101.826 60.5287 97.5031 57.1758 92.4916 55.3206C87.4801 53.4653 82.0217 53.1971 76.8534 54.5522C71.6851 55.9073 67.0559 58.8205 63.591 62.8982L66.8426 63.2952L68.5392 63.5362Z" fill="#8DC9F8"/>
    <path id="Vector_26" d="M80.3582 67.8752C80.6924 68.2929 81.0038 68.7283 81.2913 69.1796C81.9888 69.0344 82.6996 68.9631 83.4119 68.9669C85.3354 68.9638 87.2256 69.4706 88.8909 70.4359C90.5563 71.4012 91.9377 72.7908 92.8952 74.4639C93.8528 76.137 94.3525 78.0341 94.3437 79.9632C94.3349 81.8923 93.8179 83.7848 92.8451 85.4491C91.8723 87.1133 90.4783 88.4901 88.8042 89.4401C87.1301 90.3901 85.2354 90.8795 83.3121 90.8587C81.3887 90.838 79.5049 90.3078 77.8516 89.3218C76.1983 88.3359 74.8342 86.9293 73.8973 85.2445C72.5017 85.5422 71.0822 85.713 69.656 85.7549C70.8098 88.4855 72.7432 90.8128 75.213 92.4437C77.6827 94.0746 80.5783 94.9362 83.5353 94.9202C86.4922 94.9041 89.3784 94.0111 91.8304 92.3534C94.2823 90.6958 96.1905 88.3477 97.3147 85.6047C98.4389 82.8617 98.7289 79.8465 98.1481 76.9386C97.5673 74.0307 96.1417 71.3601 94.0508 69.263C91.9599 67.166 89.2971 65.7362 86.3977 65.1536C83.4983 64.5711 80.4919 64.8619 77.7569 65.9894C78.7474 66.426 79.6341 67.0688 80.3582 67.8752Z" fill="#8DC9F8"/>
    </g>
    <defs>
    <clipPath id="clip0_35_3177">
    <rect width="125.839" height="150" fill="white"/>
    </clipPath>
    </defs>
    </svg>
    