<svg width="40" height="32" viewBox="0 0 40 32" fill="none" xmlns="http://www.w3.org/2000/svg">
<g id="Frame">
<path id="Vector" fill-rule="evenodd" clip-rule="evenodd" d="M17.7714 20.1481V5.1395C17.7714 2.7712 15.8516 0.851318 13.4833 0.851318H4.90692C2.53863 0.851318 0.618744 2.7712 0.618744 5.1395V13.7159C0.618744 16.0842 2.53863 18.004 4.90692 18.004H11.3392V20.1481C11.379 22.2249 9.92459 24.0317 7.88721 24.4363C7.41188 24.5432 7.06839 24.9572 7.05102 25.444V29.7323C7.03508 30.065 7.16878 30.3875 7.41552 30.6113C7.64358 30.8145 7.94883 30.9085 8.25171 30.8686C13.6992 30.2547 17.806 25.6301 17.7714 20.1481ZM26.3483 0.851318H34.9247C37.2929 0.851318 39.2129 2.7712 39.2129 5.1395V20.1481C39.2363 25.6218 35.1325 30.2342 29.6931 30.8472C29.3902 30.8871 29.085 30.7931 28.8569 30.5898C28.6273 30.3808 28.4951 30.0856 28.4924 29.7751V25.487C28.4902 24.9839 28.8379 24.547 29.3286 24.4363C31.366 24.0317 32.8204 22.2249 32.7806 20.1481V18.004H26.3483C23.98 18.004 22.0602 16.0842 22.0602 13.7159V5.1395C22.0602 2.7712 23.98 0.851318 26.3483 0.851318Z" fill="#641DAC"/>
</g>
</svg>
