<svg width="42" height="42" viewBox="0 0 42 42" fill="none" xmlns="http://www.w3.org/2000/svg">
    <g clip-path="url(#clip0_82_6463)">
        <path
            d="M25.5774 9.79904C27.1144 9.79904 28.5354 10.437 29.5214 11.51C30.7394 11.278 31.9284 10.843 32.9724 10.205C32.5664 11.481 31.6964 12.525 30.6234 13.192C31.7254 13.047 32.7694 12.786 33.6974 12.322C32.9724 13.424 32.0734 14.352 31.0294 15.077V15.744C31.0294 22.878 25.5774 31.085 15.6884 31.085C12.6724 31.114 9.80141 30.215 7.45241 28.707C7.85841 28.765 8.32241 28.794 8.72841 28.794C11.2804 28.794 13.5714 27.924 15.4274 26.474C12.9914 26.474 10.9904 24.937 10.2654 22.762C10.5844 22.82 10.9034 22.849 11.2514 22.849C11.7444 22.849 12.1504 22.791 12.6144 22.675C10.1784 22.182 8.17741 20.007 8.17741 17.368V17.31C8.17741 17.716 9.85941 17.948 10.7294 17.977C9.27941 17.02 8.46741 15.338 8.46741 13.482C8.46741 12.496 8.72841 11.568 9.19241 10.756C11.8604 14.033 15.8044 16.15 20.2994 16.382C20.2124 15.976 20.1544 15.57 20.1544 15.164C20.1834 12.235 22.5904 9.79904 25.5774 9.79904ZM25.5774 8.43604C21.9524 8.43604 18.9944 11.307 18.8204 14.874C15.4564 14.323 12.4114 12.554 10.2364 9.88604C9.97541 9.62504 9.56941 9.42204 9.19241 9.42204H9.10541C8.61241 9.48004 8.23541 9.74104 8.00341 10.089C7.42341 11.133 7.10441 12.322 7.10441 13.482C7.10441 14.381 7.27841 15.309 7.56841 16.063C7.10441 16.295 6.78541 16.73 6.78541 17.281V17.339C6.78541 19.253 7.59741 21.022 8.96041 22.24C8.87341 22.501 8.87341 22.82 8.96041 23.139C9.45341 24.734 10.5554 26.039 11.8604 26.851C10.8164 27.228 9.71441 27.431 8.58341 27.431C8.20641 27.431 7.85841 27.431 7.45241 27.373H7.36541C6.78541 27.373 6.26341 27.75 6.08941 28.272C5.85741 28.852 6.08941 29.548 6.64041 29.867C9.30841 31.578 12.4404 32.506 15.6594 32.506C26.1284 32.506 32.3634 24.038 32.3634 15.802V15.744C33.2624 14.961 34.0744 14.12 34.7704 13.105C34.9154 12.931 35.0024 12.728 35.0024 12.525C35.0894 12.061 34.9154 11.626 34.5964 11.307C34.4514 11.162 34.2774 11.075 34.1034 10.988L34.2484 10.582C34.4224 10.031 34.2484 9.45104 33.7844 9.07404C33.5524 8.90004 33.2334 8.75504 32.9144 8.75504C32.6824 8.75504 32.4214 8.81304 32.2474 8.92904C31.5224 9.39304 30.7394 9.71204 29.9274 9.91504C28.7094 9.01604 27.1724 8.43604 25.5774 8.43604Z"
            fill="white" />
    </g>
    <rect x="0.5" y="0.5" width="41" height="41" rx="5.5" stroke="white" stroke-opacity="0.5" />
    <defs>
        <clipPath id="clip0_82_6463">
            <rect width="29" height="29" fill="white" transform="translate(6 6)" />
        </clipPath>
    </defs>
</svg>
    